<svg width="45" height="88" viewBox="0 0 45 88" fill="none" xmlns="http://www.w3.org/2000/svg">
<rect width="45" height="88" fill="#E5E5E5"/>
<rect width="1500" height="2979" transform="translate(-165 -50)" fill="#FBF4E9"/>
<path d="M25.6944 23.6168H17.5016V20.4752C17.5016 20.1467 17.3784 19.8592 17.132 19.6128C16.9267 19.3664 16.6597 19.2432 16.3312 19.2432H12.9432C12.6147 19.2432 12.3272 19.3664 12.0808 19.6128C11.8755 19.8592 11.7728 20.1467 11.7728 20.4752V27.5592C11.7728 27.8877 11.8755 28.1752 12.0808 28.4216C12.3272 28.668 12.6147 28.7912 12.9432 28.7912H18.4872C23.5795 28.8733 26.1256 31.5837 26.1256 36.9224V45.4848C26.1256 50.9056 23.5795 53.616 18.4872 53.616H11.2184C6.12613 53.616 3.58 50.9056 3.58 45.4848V41.3576H11.7728V45.7928C11.7728 46.1213 11.8755 46.4088 12.0808 46.6552C12.3272 46.9016 12.6147 47.0248 12.9432 47.0248H16.7624C17.0909 47.0248 17.3579 46.9016 17.5632 46.6552C17.8096 46.4088 17.9328 46.1213 17.9328 45.7928V37.9696C17.9328 37.6411 17.8096 37.3536 17.5632 37.1072C17.3579 36.8608 17.0909 36.7376 16.7624 36.7376H11.2184C6.12613 36.7376 3.58 34.0272 3.58 28.6064V20.66C3.58 15.2392 6.12613 12.5288 11.2184 12.5288H18.056C23.1483 12.5288 25.6944 15.2392 25.6944 20.66V23.6168Z" fill="#2E74F8"/>
<path d="M32.6112 35.1448C37.7035 35.1448 40.2496 37.8552 40.2496 43.276V66.8688C40.2496 72.2896 37.7035 75 32.6112 75H16.78V35.1448H32.6112ZM31.6256 67.8544V42.2288C31.6256 41.9003 31.5024 41.6128 31.256 41.3664C31.0507 41.12 30.7837 40.9968 30.4552 40.9968H25.404V69.0864H30.4552C30.7837 69.0864 31.0507 68.9632 31.256 68.7168C31.5024 68.4704 31.6256 68.1829 31.6256 67.8544Z" fill="#323842"/>
</svg>
